# xmcd
#
# Track frame offsets:
#	150
#	15534
#	28857
#	44063
#	62187
#	76711
#	93871
#	111303
#	126191
#	140335
#	156252
#	171893
#	188636
#	202631
#	217452
#	233527
#	245266
#	258378
#	275387
#	290286
#
# Disc length: 4052 seconds
#
# Revision: 1
# Processed by: cddbd v1.5.2PL0 Copyright (c) Steve Scherf et al.
# Submitted via: audiograbber 1.83.01
#
DISCID=180fd214
DTITLE=Various Artist - Put Your Hands Up! 3
DYEAR=2007
DGENRE=Dance
TTITLE0=Faithless - God is a DJ
TTITLE1=Ian Van Dahl - Reason
TTITLE2=Sash featuring Tina Cousins - Mysterious Times
TTITLE3=Robert Miles - Children
TTITLE4=D.J. Sammy - Sunlight
TTITLE5=Snap! - The Power (Of Bhangra)
TTITLE6=Dee Dee - Forever
TTITLE7=QFX - Freedom (Bass Slammers remix)
TTITLE8=Espire - Right Here Waiting
TTITLE9=Tukan - Light a Rainbow (CJ Stone UK radio edit)
TTITLE10=Piano Pirates - Make It On My Own
TTITLE11=York - On The Beach (Caw radio edit)
TTITLE12=Onyx featuring Gemma J - Every Little Time (Rezonance Q remix)
TTITLE13=Nysse and Hinton featuring Pascale - Silver Water (Dizzy Deejays edit)
TTITLE14=Ultra D.J.s - The Music (Kindervater radio edit)
TTITLE15=Mario Piu - Communication (Yomanda remix)
TTITLE16=Vogue - Another Night
TTITLE17=Lauren - Dreamboy (PNP remix)
TTITLE18=MYPD featuring Liz - You're Not Alone (Daniel Winter radio edit)
TTITLE19=Orion Too - Hope and Wait
EXTD=
EXTT0=
EXTT1=
EXTT2=
EXTT3=
EXTT4=
EXTT5=
EXTT6=
EXTT7=
EXTT8=
EXTT9=
EXTT10=
EXTT11=
EXTT12=
EXTT13=
EXTT14=
EXTT15=
EXTT16=
EXTT17=
EXTT18=
EXTT19=
PLAYORDER=
